<svg xmlns="http://www.w3.org/2000/svg" version="1.1" xmlns:xlink="http://www.w3.org/1999/xlink" xmlns:svgjs="http://svgjs.com/svgjs" width="1440" height="560" preserveAspectRatio="none" viewBox="0 0 1440 560"><g mask="url(&quot;#SvgjsMask1023&quot;)" fill="none"><rect width="1440" height="560" x="0" y="0" fill="#0e2a47"></rect><path d="M1297.93 50.99L1310.83 50.99L1310.83 68.01L1297.93 68.01z" stroke="#037b0b"></path><path d="M22.24 476.28 a30.49 30.49 0 1 0 60.98 0 a30.49 30.49 0 1 0 -60.98 0z" stroke="#037b0b"></path><path d="M82.4 194.69L116.41 194.69L116.41 243.88L82.4 243.88z" stroke="#e73635"></path><path d="M470.93 406.91 a0.57 0.57 0 1 0 1.14 0 a0.57 0.57 0 1 0 -1.14 0z" fill="#037b0b"></path><path d="M476.66 411.63L514.93 411.63L514.93 449.9L476.66 449.9z" fill="#e73635"></path><path d="M296.39 473.12 a30.05 30.05 0 1 0 60.1 0 a30.05 30.05 0 1 0 -60.1 0z" fill="#d3b714"></path><path d="M877.1 71.72a10.01 10.01 0 1 0 4.44-19.53z" fill="#e73635"></path><path d="M794.94 546.39L821.96 546.39L821.96 596.75L794.94 596.75z" fill="#037b0b"></path><path d="M1342.49 236.29 a30.43 30.43 0 1 0 60.86 0 a30.43 30.43 0 1 0 -60.86 0z" stroke="#d3b714"></path><path d="M484.19 104.07a22.26 22.26 0 1 0 0.7-44.52z" stroke="#d3b714"></path><path d="M355.48 252.93 a15.12 15.12 0 1 0 30.24 0 a15.12 15.12 0 1 0 -30.24 0z" stroke="#e73635"></path><path d="M1414.82 415.11L1459.71 415.11L1459.71 460L1414.82 460z" stroke="#d3b714"></path><path d="M204.84 312.59a35.05 35.05 0 1 0-57.03 40.76z" stroke="#e73635"></path><path d="M453.24 332.44L464.06 332.44L464.06 343.26L453.24 343.26z" fill="#d3b714"></path><path d="M1367.38 361.13 a48.52 48.52 0 1 0 97.04 0 a48.52 48.52 0 1 0 -97.04 0z" fill="#037b0b"></path><path d="M86.18 195.07 a19.31 19.31 0 1 0 38.62 0 a19.31 19.31 0 1 0 -38.62 0z" stroke="#037b0b"></path><path d="M1410.45 249.9a19.82 19.82 0 1 0-27.33 28.71z" stroke="#e73635"></path><path d="M1146.79 64.91 a23.38 23.38 0 1 0 46.76 0 a23.38 23.38 0 1 0 -46.76 0z" fill="#037b0b"></path><path d="M1292.15 80.33L1317.92 80.33L1317.92 129.14L1292.15 129.14z" fill="#d3b714"></path><path d="M160.31 403.86L188.21 403.86L188.21 431.76L160.31 431.76z" stroke="#e73635"></path><path d="M778.91 47.04 a7.9 7.9 0 1 0 15.8 0 a7.9 7.9 0 1 0 -15.8 0z" stroke="#d3b714"></path><path d="M510.7 38.73L560.99 38.73L560.99 89.02L510.7 89.02z" stroke="#d3b714"></path><path d="M1270.58 193.94L1295.33 193.94L1295.33 218.69L1270.58 218.69z" stroke="#d3b714"></path><path d="M173.68 348.74L195.26 348.74L195.26 371.08L173.68 371.08z" fill="#d3b714"></path><path d="M1006.69 377.01L1026.4 377.01L1026.4 381.15L1006.69 381.15z" stroke="#d3b714"></path><path d="M179.73 242.19L210.24 242.19L210.24 272.7L179.73 272.7z" fill="#d3b714"></path><path d="M326.75 371.34 a29.9 29.9 0 1 0 59.8 0 a29.9 29.9 0 1 0 -59.8 0z" fill="#e73635"></path><path d="M1301.77 338.74a43.95 43.95 0 1 0 29.77 82.7z" stroke="#037b0b"></path><path d="M755.03 143.37L779.62 143.37L779.62 167.96L755.03 167.96z" stroke="#e73635"></path><path d="M1124.81 490.44 a18.8 18.8 0 1 0 37.6 0 a18.8 18.8 0 1 0 -37.6 0z" fill="#d3b714"></path><path d="M192.9 80.71 a14.74 14.74 0 1 0 29.48 0 a14.74 14.74 0 1 0 -29.48 0z" stroke="#e73635"></path><path d="M593.57 150.85L595.03 150.85L595.03 152.31L593.57 152.31z" fill="#037b0b"></path><path d="M1150.57 211.07 a53.65 53.65 0 1 0 107.3 0 a53.65 53.65 0 1 0 -107.3 0z" stroke="#e73635"></path></g><defs><mask id="SvgjsMask1023"><rect width="1440" height="560" fill="#ffffff"></rect></mask></defs></svg>